<!DOCTYPE svg PUBLIC "-//W3C//DTD SVG 1.1//EN" "http://www.w3.org/Graphics/SVG/1.1/DTD/svg11.dtd" [
	<!ENTITY ns_flows "http://ns.adobe.com/Flows/1.0/">
	<!ENTITY ns_extend "http://ns.adobe.com/Extensibility/1.0/">
	<!ENTITY ns_ai "http://ns.adobe.com/AdobeIllustrator/10.0/">
	<!ENTITY ns_graphs "http://ns.adobe.com/Graphs/1.0/">
]>
<svg version="1.1" id="Layer_1" xmlns:x="&ns_extend;" xmlns:i="&ns_ai;" xmlns:graph="&ns_graphs;"
	 xmlns="http://www.w3.org/2000/svg" xmlns:xlink="http://www.w3.org/1999/xlink" xmlns:a="http://ns.adobe.com/AdobeSVGViewerExtensions/3.0/"
	 x="0px" y="0px" width="864px" height="864px" viewBox="0 0 864 864" enable-background="new 0 0 864 864" xml:space="preserve">
<path stroke="#FFF" stroke-width="5" fill="none" fill-rule="evenodd" clip-rule="evenodd" d="M426.792,827.801c-2.863-3.164-6.06-6.09-8.525-9.539
	c-6.864-9.599-13.747-19.212-20.002-29.209c-4.785-7.646-8.583-15.907-12.899-23.853c-3.154-5.807-6.561-11.479-9.616-17.335
	c-1.915-3.67-3.625-7.485-4.987-11.39c-1.207-3.461-3.554-3.609-6.444-3.155c-9.073,1.426-18.13,2.97-27.227,4.225
	c-10.37,1.43-20.446,0.623-30.678-2.359c-13.271-3.868-24.034-11.527-34.153-20.212c-5.744-4.929-10.943-10.759-15.347-16.925
	c-7.145-10.006-11.914-21.369-14.953-33.258c-2.846-11.134-5.958-22.389-6.911-33.762c-0.88-10.498,0.072-21.373,1.833-31.809
	c1.807-10.71,5.461-21.122,8.569-31.586c0.688-2.319,2.477-4.312,3.759-6.453c0.499,0.115,0.998,0.23,1.497,0.346
	c0,2.938-0.255,5.9,0.042,8.808c1.739,17.005,10.259,30.679,21.745,42.675c4.268,4.457,10.121,5.94,16.188,7.265
	c10.296,2.248,20.321,1.497,30.242-1.101c3.497-0.916,6.638-3.404,9.765-5.443c2.027-1.324,3.422-1.353,5.298,0.339
	c3.622,3.264,7.507,6.235,11.479,9.488c-11.919,14.126-27.838,19.295-45.045,20.817c-18.171,1.607-31.817-8.749-44.95-19.762
	c-0.227,0.264-0.454,0.527-0.68,0.791c1.899,10.447,3.68,20.918,5.721,31.338c4.286,21.881,17.237,37.539,35.803,48.979
	c4.616,2.845,9.334,5.764,14.385,7.614c13.869,5.08,27.901,5.498,41.321-1.452c5.962-3.086,11.354-7.276,16.994-10.982
	c2.134-1.401,4.236-2.852,7.094-4.78c13.229,37.262,27.154,73.49,53.884,104.055c2.618-2.718,5.397-4.708,6.989-7.399
	c10.696-18.087,21.553-36.103,31.483-54.609c4.524-8.432,7.036-17.94,10.509-26.942c1.496-3.876,3.114-7.705,4.924-12.164
	c9.012,5.258,17.344,10.537,26.055,15.092c9.719,5.08,19.948,6.565,30.947,3.808c14.575-3.656,27.071-11.032,37.37-21.408
	c14.426-14.534,23.892-32.055,26.599-52.75c0.52-3.97,1.214-7.916,1.843-11.967c-8.587,3.569-16.695,7.174-24.975,10.331
	c-15.268,5.822-30.324,6.359-45.221-1.758c-7.466-4.068-13.844-9.212-19.826-15.862c5.407-3.132,10.509-6.267,15.813-9.008
	c1.088-0.564,3.07,0.04,4.413,0.628c4.736,2.072,9.272,4.633,14.071,6.533c10.93,4.327,21.146,0.31,31.419-3.054
	c13.143-4.301,19.582-14.87,23.93-26.674c3.055-8.292,4.295-17.254,6.351-25.914c0.228-0.955,0.494-1.901,0.852-3.271
	c1.029,0.867,2.111,1.334,2.419,2.109c2.154,5.416,4.953,10.742,6.032,16.388c2.458,12.854,4.601,25.826,5.757,38.849
	c0.572,6.444-1.036,13.156-2.168,19.658c-1.604,9.205-2.952,18.557-5.729,27.433c-3.892,12.438-11.188,23.229-18.498,34
	c-7.798,11.488-18.664,19.441-29.636,27.218c-4.317,3.059-10.007,4.174-15.066,6.189c-18.731,7.459-37.285,4.428-55.798-0.94
	c-0.967-0.28-1.911-0.632-2.869-0.94c-4.969-1.606-6.288-1.048-8.53,3.606c-5.94,12.34-11.418,24.931-17.97,36.937
	c-5.091,9.327-11.184,18.169-17.445,26.779c-6.68,9.185-14.082,17.843-21.169,26.73
	C430.842,827.801,428.817,827.801,426.792,827.801z"/>
<path stroke="#FFF" stroke-width="5" fill="none" fill-rule="evenodd" clip-rule="evenodd" d="M506.731,523.561c3.5,5.256,6.519,11.078,10.732,15.841
	c8.007,9.047,16.762,17.429,25.065,26.218c2.356,2.495,4.561,5.269,6.181,8.267c0.743,1.377,0.512,3.959-0.317,5.393
	c-4.597,7.941-10.831,14.497-17.844,20.409c-3.731,3.145-7.098,6.746-10.462,10.297c-4.703,4.965-6.732,4.663-9.28-1.407
	c-5.619-13.386-11.146-26.816-17.085-40.061c-3.342-7.454-2.884-14.492-0.32-22.028c6.536-19.22,10.311-38.924,9.916-59.381
	c-0.245-12.693,0.317-25.401,0.506-38.103c0.013-0.865,0.005-1.743-0.125-2.595c-0.498-3.262,0.08-7.973-1.829-9.453
	c-3.429-2.658-8.296-3.614-12.683-4.849c-8.092-2.276-16.229-4.423-24.424-6.286c-10.49-2.385-21.015-4.689-31.615-6.486
	c-3.582-0.607-7.514,0.069-11.162,0.789c-13.617,2.688-27.202,5.55-40.758,8.532c-5.587,1.229-11.098,2.841-16.575,4.503
	c-0.895,0.271-1.985,1.658-2.06,2.603c-0.719,9.049-1.557,18.108-1.74,27.177c-0.269,13.265-0.532,26.564,0.132,39.803
	c0.781,15.581,3.611,30.895,9.764,45.385c1.404,3.307,1.069,6.132-0.265,9.444c-6.998,17.37-13.711,34.854-20.538,52.295
	c-0.246,0.629-0.638,1.2-1.2,2.237c-11.087-8.485-22.275-16.365-30.321-27.753c-0.498-0.706-0.89-1.492-1.437-2.154
	c-7.702-9.334-7.698-6.222,0.704-15.628c9.226-10.329,19.125-20.054,28.592-30.17c2.989-3.193,5.802-6.624,8.197-10.273
	c1.858-2.833,0.909-5.095-2.331-6.979c-11.037-6.414-21.871-13.177-33.228-20.077c1.604-1.695,2.529-2.676,3.655-3.865
	c-14.338-5.757-29.147-10.352-40.511-22.545c3.64-0.365,7.279-0.73,10.919-1.097c0.029-0.219,0.059-0.438,0.088-0.657
	c-8.307-2.104-17.042-3.222-24.801-6.591c-7.89-3.426-14.817-9.069-22.167-13.741c0.142-0.521,0.284-1.042,0.426-1.562
	c5.921-0.303,11.851-0.494,17.756-0.983c1.508-0.125,2.938-1.19,4.403-1.823c-1.309-0.816-2.53-2.111-3.942-2.372
	c-9.605-1.771-19.273-3.206-28.869-5.025c-2.692-0.51-5.548-1.474-7.732-3.055c-3.811-2.758-7.159-6.155-10.997-9.546
	c6.47-2.809,13.779-1.228,19.574-5.284c-18.14-0.979-36.247-1.175-47.12-19.953c6.119-0.971,11.84-1.88,17.562-2.789
	c0.069-0.537,0.139-1.074,0.208-1.611c-16.396-1.395-32.802-2.771-42.097-20.939c12.538,0,24.371,0,36.203,0
	c0.088-0.647,0.175-1.295,0.263-1.942c-1.42-0.601-2.803-1.59-4.269-1.735c-7.739-0.768-15.489-1.565-23.255-1.886
	c-8.912-0.367-16.625-3.031-22.388-10.1c-1.22-1.497-2.037-3.321-3.477-5.724c17.822-0.836,34.798-1.631,51.774-2.428
	c0.175-0.321,0.35-0.642,0.524-0.962c-0.891-0.735-1.696-1.95-2.686-2.125c-4.504-0.798-9.043-1.549-13.601-1.863
	c-9.484-0.654-19.081-0.372-28.458-1.697c-8.739-1.234-17.147-4.348-22.677-12.042c-0.959-1.334-1.668-3.746-1.088-5.021
	c0.516-1.133,2.979-1.927,4.585-1.934c30.086-0.111,60.18-0.46,90.257,0.057c18.515,0.317,36.917,2.272,55.145,6.269
	c13.971,3.063,27.897,5.948,41.084,11.615c14.06,6.042,27.444,13.209,38.79,23.703c6.866,6.351,13.932,12.501,20.521,19.127
	c3.729,3.75,6.677,8.28,10.571,13.212c1.67-2.068,3.397-3.568,4.319-5.46c4.291-8.808,8.357-17.724,12.914-27.479
	c-8.947-1.425-14.763-6.637-16.679-15.816c-0.433,0.042-0.867,0.085-1.3,0.127c-0.371,2.246-0.742,4.492-1.255,7.593
	c-1.878-3.955-3.541-7.102-4.891-10.377c-2.518-6.106,0.986-12.547,7.657-13.481c4.223-0.591,8.594-0.051,12.871-0.384
	c1.937-0.151,4.165-0.745,5.624-1.926c2.56-2.07,4.958-4.518,6.829-7.22c3.203-4.628,7.251-6.515,12.841-5.93
	c9.295,0.973,18.618,1.682,27.936,2.428c2.088,0.167,4.199,0.024,6.617,0.024c-4.134,6.625-7.08,13.738-6.021,21.621
	c1.605,11.959,3.585,23.874,5.686,35.758c0.941,5.33,2.011,10.759,4.007,15.75c2.626,6.566,4.892,6.771,9.995,2.06
	c12.594-11.625,25.094-23.355,37.807-34.848c6.524-5.897,12.939-12.135,20.281-16.853c9-5.783,18.569-10.447,29.676-12.078
	c20.571-3.021,41.17-1.233,61.735-1.653c30.66-0.625,61.342-0.162,92.015-0.162c1.013,0,2.089-0.222,3.026,0.046
	c2.254,0.646,6.233,1.381,6.308,2.333c0.189,2.406-0.661,5.799-2.393,7.283c-5.452,4.673-11.414,8.701-19.112,9.03
	c-6.171,0.263-12.333,0.866-18.474,1.548c-1.176,0.13-2.232,1.331-3.345,2.037c0.158,0.381,0.315,0.762,0.474,1.143
	c3.503,0.351,7.002,0.75,10.51,1.039c4.592,0.378,9.194,0.631,13.786,1.012c3.795,0.315,4.891,2.722,2.489,5.788
	c-5.09,6.501-11.202,11.122-20.082,10.727c-2.703-0.121-5.459,0.326-8.147,0.768c-1.14,0.187-2.171,1.029-3.251,1.573
	c0.109,0.37,0.219,0.741,0.328,1.112c3.229,0.273,6.493,0.344,9.669,0.911c1.457,0.26,3.514,1.241,3.883,2.361
	c0.375,1.14-0.786,2.991-1.651,4.277c-0.87,1.292-2.319,2.177-3.315,3.402c-5.181,6.373-11.656,9.818-20.046,9.919
	c-4.134,0.049-8.268,1.021-12.377,1.726c-1.217,0.209-2.346,0.928-3.516,1.414c0.074,0.486,0.146,0.972,0.22,1.458
	c1.72,0.115,3.438,0.297,5.158,0.331c2.749,0.056,5.5-0.041,8.247,0.025c3.636,0.087,4.811,2.041,2.508,4.863
	c-6.204,7.604-13.546,13.547-23.831,14.674c-1.471,0.161-2.873,0.932-4.561,1.506c4.053,5.604,4.007,5.63-0.602,9.746
	c-7.433,6.64-16.678,8.549-26.055,10.22c-3.521,0.628-7.011,1.457-10.469,2.37c-0.905,0.238-1.637,1.136-2.204,2.806
	c4.287,0.718,8.575,1.435,12.862,2.152c0.248,0.401,0.496,0.802,0.743,1.202c-4.181,3.232-8.123,6.852-12.596,9.611
	c-8.42,5.193-17.37,8.968-27.693,8.094c-1.365-0.116-2.87,1.408-4.311,2.172c0.193,0.531,0.388,1.061,0.581,1.591
	c1.652,0.075,3.33,0.007,4.951,0.277c1.043,0.175,2.002,0.849,2.999,1.299c-0.519,0.902-0.811,2.151-1.587,2.656
	c-11.821,7.682-23.706,15.257-38.104,17.278c-0.799,0.112-1.547,0.575-3.374,2.212c1.222,0.573,2.445,1.146,4.565,2.139
	C531.423,507.925,519.546,515.445,506.731,523.561z M400.291,351.394c1.242,0.778,1.779,1.304,2.412,1.48
	c4.292,1.196,8.592,2.375,12.916,3.454c7.204,1.796,10.564,7.404,8.937,14.703c-2.239,10.048-4.334,20.127-6.537,30.412
	c12.006,0,23.538,0,35.151,0c-0.029-0.578-0.016-0.986-0.075-1.383c-2.631-17.487-5.364-34.958-7.862-52.464
	c-1.105-7.742-0.892-7.759-8.506-8.585c-1.719-0.187-3.43-0.754-5.133-0.71c-3.144,0.081-6.279,0.485-9.418,0.754
	c5.424,2.688,5.932,4.941,2.166,9.079c-2.726,2.995-5.936,4.385-9.972,4.088C409.957,351.896,405.535,351.695,400.291,351.394z"/>
<path stroke="#FFF" stroke-width="5" fill="none" fill-rule="evenodd" clip-rule="evenodd" d="M433.236,84.615c-4.997,10.476-9.806,19.823-13.966,29.45
	c-6.701,15.504-15.138,30.051-23.13,44.884c-11.123,20.643-22.077,41.562-30.689,63.317c-8.294,20.951-14.164,42.95-19.842,64.814
	c-3.235,12.458-3.939,25.57-5.822,38.383c-0.325,2.213-0.843,4.398-1.464,7.579c-8.566-10.136-19.485-15.033-29.973-20.716
	c-21.045-11.404-43.593-16.518-67.27-15.577c-10.964,0.435-22.198,2.202-32.625,5.521c-8.57,2.728-15.953,8.997-24.2,12.997
	c-4.645,2.253-9.895,3.782-15.02,4.389c-6.269,0.742-12.692,0.177-19.252,0.177c0.369-6.58,5.204-10.307,9.182-13.77
	c9.289-8.086,18.165-16.842,30.046-21.531c14.158-5.587,28.7-9.563,43.864-10.253c11.598-0.527,23.449-0.973,34.838,0.799
	c13.076,2.035,25.845,6.294,38.575,10.159c3.679,1.117,6.91,4.005,10.083,6.426c4.511,3.441,7.469,2.901,8.853-2.56
	c2.751-10.858,4.659-21.942,7.712-32.707c2.934-10.343,6.502-20.548,10.465-30.547c5.188-13.09,10.638-26.108,16.715-38.803
	c5.835-12.188,12.638-23.911,18.971-35.863c2.897-5.469,5.842-10.92,8.499-16.507c13.562-28.505,27.045-57.048,40.53-85.591
	c1.719-3.639,3.283-7.352,5.382-12.071c1.532,3.205,2.778,5.493,3.748,7.893c3.611,8.928,6.583,18.161,10.8,26.79
	c8.604,17.609,17.862,34.898,26.846,52.322c8.184,15.872,16.394,31.73,24.523,47.629c4.401,8.605,9.115,17.09,12.863,25.978
	c4.235,10.043,7.401,20.531,11.285,30.729c8.131,21.351,12.53,43.685,17.57,65.85c0.477,2.094,0.913,3.259,3.294,2.418
	c2.146-0.757,4.571-0.996,6.474-2.134c15.873-9.497,33.145-14.094,51.407-16.472c19.097-2.486,37.639-0.662,55.86,4.681
	c6.922,2.03,13.279,5.962,19.933,8.939c9.607,4.298,17.58,10.626,24.602,18.463c4.007,4.472,8.956,8.094,13.414,12.172
	c0.735,0.673,1.126,1.723,1.677,2.599c-0.959,0.4-1.913,1.135-2.876,1.148c-7.376,0.097-14.756,0.125-22.132-0.016
	c-1.303-0.025-2.722-0.74-3.863-1.479c-15.941-10.326-32.828-18.578-51.604-22.114c-18.252-3.438-36.529-2.855-54.277,2.83
	c-17.564,5.625-34.671,12.432-49.217,24.304c-1.976,1.613-4.107,3.033-6.916,5.091c-0.78-3.769-1.868-6.769-1.954-9.797
	c-0.571-20.177-4.616-39.808-9.964-59.107c-3.912-14.116-9.306-27.82-14.03-41.711c-6.029-17.728-14.099-34.542-22.646-51.163
	c-8.17-15.886-16.014-31.939-24.146-47.846c-5.904-11.551-12.044-22.98-18.076-34.465C435.501,89.036,434.73,87.515,433.236,84.615z
	"/>
<path stroke="#FFF" stroke-width="5" fill="none" fill-rule="evenodd" clip-rule="evenodd" d="M496.953,487.271c-42.55,0-84.6,0-127.317,0c0-1.418,0-2.8,0-4.182
	c0-12.298,0.111-24.598-0.071-36.893c-0.053-3.561,0.693-5.132,4.632-6.033c17.076-3.905,33.977-8.575,51.06-12.444
	c4.312-0.977,9.225-0.772,13.583,0.172c18.245,3.953,36.378,8.419,54.57,12.62c1.942,0.448,3.594,0.6,3.579,3.272
	C496.912,458.098,496.953,472.41,496.953,487.271z"/>
<path stroke="#FFF" stroke-width="5" fill="none" fill-rule="evenodd" clip-rule="evenodd" d="M735.218,352.572c39.236,81.129-14.877,189.188-87.981,216.008
	c0-7.742,0.343-15.738-0.072-23.695c-0.81-15.486-4.717-30.232-13.428-43.193c-6.572-9.778-14.645-18.197-26.441-21.929
	c-1.46-0.463-2.77-1.405-4.38-2.247c5.934-4.956,11.584-9.835,17.459-14.427c0.986-0.77,3.239-0.872,4.402-0.284
	c3.675,1.857,7.668,3.622,10.527,6.446c7.683,7.588,15.261,15.465,19.652,25.547c2.804,6.437,4.786,13.231,7.13,19.868
	c1.769,5.007,3.526,10.018,5.761,16.371c6.788-5.295,13.102-9.94,19.1-14.963c9.041-7.57,14.402-17.894,19.995-27.965
	c4.396-7.915,8.889-15.821,12.577-24.072c5.517-12.342,7.562-25.561,8.725-38.991c1.707-19.716-0.965-39.081-3.679-58.489
	c-0.234-1.673,0.528-3.959,1.646-5.25C728.841,358.271,731.966,355.664,735.218,352.572z"/>
<path stroke="#FFF" stroke-width="5" fill="none" fill-rule="evenodd" clip-rule="evenodd" d="M262.423,473.411c-3.72,1.956-6.645,3.821-9.807,5.103
	c-13.59,5.505-21.388,16.368-27.612,28.924c-7.984,16.106-11.137,32.929-8.317,50.755c0.333,2.108,1.029,4.159,1.883,7.525
	c-3.53-1.17-6.64-1.804-9.382-3.174c-17.568-8.78-32.894-20.642-46.348-34.863c-7.829-8.276-15.035-17.052-19.809-27.624
	c-4.796-10.622-11.041-20.7-14.799-31.652c-4.183-12.19-6.78-25.005-9.152-37.719c-2.958-15.854-2.706-31.971-0.34-47.864
	c1.78-11.955,5.058-23.668,10.853-34.47c0.456-0.849,1.033-1.633,1.942-3.055c3.477,4.539,7.065,8.49,9.765,12.975
	c2.312,3.839,1.428,8.019,0.214,12.484c-2.929,10.773-6.522,21.768-6.852,32.763c-0.719,24.005,3.549,47.458,15.46,68.726
	c5.888,10.515,13.247,20.197,19.753,30.377c5.896,9.224,14.643,15.434,22.905,22.152c2.029,1.649,4.097,1.923,5.037-1.638
	c1.939-7.347,3.465-14.922,6.457-21.843c4.454-10.302,9.792-20.254,17.716-28.518c5.093-5.311,9.957-10.789,17.089-13.616
	c2.379-0.943,4.044-1.374,6.22,0.476C250.673,464.204,256.278,468.5,262.423,473.411z"/>
<path stroke="#FFF" stroke-width="5" fill="none" fill-rule="evenodd" clip-rule="evenodd" d="M538.114,675.044c-0.706-4.033-1.318-7.534-1.972-11.263
	c-14.757,0-29.204-0.001-43.651-0.001c-0.578,0-1.157,0-1.735,0c-9.154-0.001-9.154-0.001-8.61,10.447
	c-2.247-1.855-4.332-2.749-4.918-4.234c-1.19-3.021-2.081-6.346-2.177-9.572c-0.181-6.047,3.342-9.417,9.271-9.776
	c2.437-0.147,4.867-0.579,7.3-0.573c3.197,0.006,3.202-1.893,2.529-4.017c-1.325-4.173-4.505-5.629-9.729-4.681
	c-9.393,1.704-9.704,1.834-13.376-7.007c-3.91-9.411-7.154-19.099-10.678-28.669c-1.372-3.726-0.531-6.767,2.084-9.888
	c7.761-9.264,15.215-18.784,22.805-28.191c0.341-0.423,0.831-0.725,1.651-1.423c2.218,5.863,4.398,11.406,6.417,17.007
	c4.831,13.403,9.459,26.883,14.449,40.228c1.535,4.101,0.239,6.256-3.411,7.664c-3.372,1.3-4.293,3.13-1.599,6.052
	c2.732,2.963,5.096,6.333,8.122,8.941c4.119,3.552,8.968,5.498,14.707,4.88c3.574-0.385,7.224-0.078,10.839-0.069
	c6.428,0.016,11.082,5.271,9.914,11.67C545.428,667.596,544.603,672.957,538.114,675.044z"/>
<path stroke="#FFF" stroke-width="5" fill="none" fill-rule="evenodd" clip-rule="evenodd" d="M316.533,651.464c7.225-0.825,13.479-1.608,19.75-2.237
	c8.331-0.837,14.871-4.828,20.258-11.049c2.023-2.334,2.654-4.628,0.69-7.318c-3.673-5.033-2.992-9.85-0.62-15.541
	c6.476-15.538,12.149-31.41,18.148-47.147c0.402-1.054,0.873-2.081,1.51-3.588c0.689,0.783,1.166,1.219,1.517,1.738
	c7.416,10.959,14.75,21.975,22.277,32.856c1.507,2.178,2.217,3.816,1.021,6.522c-4.597,10.401-8.981,20.903-13.209,31.462
	c-1.266,3.162-2.945,3.817-5.931,2.637c-1.595-0.63-3.38-0.76-5.022-1.292c-3.355-1.084-6.497-1.894-7.348,3.045
	c-0.063,0.363-0.604,0.62-0.818,0.987c-1.055,1.817-2.076,3.653-3.108,5.483c2.114,0.601,4.199,1.355,6.35,1.762
	c2.681,0.506,5.44,0.597,8.123,1.097c4.032,0.749,5.728,3.95,6.246,7.426c0.877,5.882-2.642,10.12-5.982,14.656
	c-0.71-0.77-1.161-1.031-1.237-1.376c-0.45-2.031-0.121-5.013-1.353-5.929c-2.419-1.802-5.638-3.235-8.621-3.437
	c-7.854-0.53-15.758-0.284-23.642-0.416c-6.043-0.1-12.095-0.139-18.123-0.528c-3.089-0.2-4.309,1.215-4.519,3.869
	c-0.18,2.272-0.037,4.571-0.037,6.822c-5.461,0.266-6.301-0.467-6.315-5.194C316.521,661.617,316.533,656.461,316.533,651.464z"/>
<path stroke="#FFF" stroke-width="5" fill="none" fill-rule="evenodd" clip-rule="evenodd" d="M435.887,102.216c2.997,69.27,5.994,138.541,9.003,208.082
	c-6.664,0.667-13.066,1.281-19.462,1.96c-3.537,0.375-4.187-1.655-3.993-4.531c0.619-9.192,1.229-18.385,1.823-27.58
	c1.775-27.462,3.49-54.929,5.325-82.388c1.94-29.04,4.008-58.07,5.97-87.108c0.189-2.797,0.025-5.619,0.025-8.429
	C435.015,102.22,435.45,102.218,435.887,102.216z"/>
<path stroke="#FFF" stroke-width="5" fill="none" fill-rule="evenodd" clip-rule="evenodd" d="M659.04,488.367c1.283-4.992,2.281-8.843,3.259-12.697
	c1.206-4.748,2.547-9.471,3.484-14.271c0.234-1.204-0.492-3.003-1.387-3.954c-6.007-6.388-12.178-12.621-18.744-19.364
	c5.496,0,10.87,0,16.245,0c10.372,0,10.323-0.018,13.771-9.805c1.518-4.308,3.28-8.529,5.463-14.162
	c2.658,7.218,5.08,13.143,7.001,19.227c1.417,4.484,3.315,6.937,8.715,6.388c6.383-0.649,12.883-0.152,19.332-0.152
	c0.167,0.419,0.334,0.839,0.501,1.258c-6.542,5.271-12.968,10.696-19.688,15.728c-2.396,1.793-2.875,3.265-1.984,6.045
	c2.494,7.781,4.657,15.669,7.2,24.37c-6.356-4.066-12.079-7.592-17.644-11.352c-2.414-1.631-4.259-1.932-6.813-0.051
	C671.993,479.811,665.962,483.673,659.04,488.367z"/>
<path stroke="#FFF" stroke-width="5" fill="none" fill-rule="evenodd" clip-rule="evenodd" d="M184.004,410.337c3.351,7.131,6.765,13.291,9.146,19.825
	c1.789,4.91,4.364,6.659,9.473,6.086c4.354-0.487,8.808-0.101,14.114-0.101c-5.875,6.27-11.159,11.728-16.178,17.419
	c-1.002,1.137-1.609,3.271-1.35,4.763c1.427,8.19,3.18,16.323,5,25.367c-6.225-4.592-11.854-8.538-17.225-12.81
	c-2.07-1.646-3.206-1.846-5.449-0.087c-5.534,4.338-11.44,8.201-18.118,12.903c1.511-8.128,2.586-15.29,4.248-22.313
	c0.946-3.997,0.777-6.751-2.801-9.627c-5.442-4.373-10.226-9.565-15.289-14.41c0.212-0.403,0.423-0.806,0.635-1.209
	c6.137,0,12.277-0.111,18.409,0.054c2.539,0.069,3.76-0.741,4.805-3.153C176.621,425.657,180.195,418.435,184.004,410.337z"/>
<path stroke="#FFF" stroke-width="5" fill="none" fill-rule="evenodd" clip-rule="evenodd" d="M398.808,635.981c3.706-10.499,7.226-20.47,10.797-30.587
	c4.952,3.576,9.499,7.001,14.192,10.212c5.459,3.734,10.783,2.978,15.99-0.778c3.033-2.188,6.188-4.22,9.376-6.179
	c2.51-1.542,4.287-1.46,5.457,1.973c2.685,7.878,5.784,15.613,8.778,23.574c-6.79,4.602-14.35,6.17-21.872,5.893
	c-11.902-0.438-23.762-2.039-35.636-3.177C403.765,636.707,401.653,636.359,398.808,635.981z"/>
<path stroke="#FFF" stroke-width="5" fill="none" fill-rule="evenodd" clip-rule="evenodd" d="M432.721,609.494c-3.394-2.066-4.264-5.066-4.246-9.017
	c0.15-32.504,0.084-65.008,0.084-97.513c0-1.701,0-3.402,0-5.389c3.057,0,5.711,0,8.948,0c0,1.999,0,3.83,0,5.661
	c0,31.493-0.048,62.986,0.053,94.479C437.574,602.327,437.616,606.688,432.721,609.494z"/>
<path stroke="#FFF" stroke-width="5" fill="none" fill-rule="evenodd" clip-rule="evenodd" d="M447.27,497.546c3.007,0,5.679,0,8.896,0c0,1.936,0,3.622,0,5.309
	c0.001,26.602-0.388,53.212,0.242,79.799c0.186,7.827-2.797,12.351-9.138,16.214C447.27,565.106,447.27,531.559,447.27,497.546z"/>
<path stroke="#FFF" stroke-width="5" fill="none" fill-rule="evenodd" clip-rule="evenodd" d="M408.711,497.394c3.347-0.155,6.026-0.279,8.58-0.397c0,33.852,0,67.274,0,101.535
	c-5.335-3.733-8.881-6.641-8.769-13.376c0.455-27.193,0.189-54.398,0.189-81.599C408.711,501.698,408.711,499.841,408.711,497.394z"
	/>
<path stroke="#FFF" stroke-width="5" fill="none" fill-rule="evenodd" clip-rule="evenodd" d="M388.626,497.391c3.572-0.159,6.681-0.298,9.707-0.433c0,27.575,0,54.766,0,81.955
	c-4.903-4.312-9.055-8.235-8.999-15.379c0.159-20.221-0.421-40.447-0.706-60.671C388.607,501.28,388.626,499.697,388.626,497.391z"
	/>
<path stroke="#FFF" stroke-width="5" fill="none" fill-rule="evenodd" clip-rule="evenodd" d="M468.493,580.119c0-2.525,0-3.761,0-4.996c0-24.562,0.005-49.124-0.007-73.686
	c-0.001-2.3-0.442-5.013,3.025-4.89c2.926,0.104,5.232,0.646,5.182,4.914c-0.255,21.235-0.38,42.481,0.054,63.712
	C476.883,571.818,472.955,575.093,468.493,580.119z"/>
<path stroke="#FFF" stroke-width="5" fill="none" fill-rule="evenodd" clip-rule="evenodd" d="M488.639,498.143c6.688-0.489,6.418-0.43,6.881,5.586
	c0.857,11.138,0.147,22.039-3.642,32.613c-0.649,1.812-1.694,3.484-3.239,5.011C488.639,527.057,488.639,512.76,488.639,498.143z"/>
<path stroke="#FFF" stroke-width="5" fill="none" fill-rule="evenodd" clip-rule="evenodd" d="M370.555,497.472c2.48,0,4.315,0,6.485,0c0,14.138,0,28.171,0,42.205
	C370.508,526.426,370.335,512.243,370.555,497.472z"/>
</svg>
