
<svg xmlns="http://www.w3.org/2000/svg" xmlns:xlink="http://www.w3.org/1999/xlink" version="1.1" x="0px" y="0px" viewBox="0 0 96 120" enable-background="new 0 0 96 96" xml:space="preserve"><g><path fill="none" stroke="#000" d="M32.3,23.7c2.3,0,4.1-1.8,4.1-4.1s-1.8-4.1-4.1-4.1c-2.3,0-4.1,1.8-4.1,4.1S30,23.7,32.3,23.7z"/><path fill="none" stroke="#000" d="M84.2,73.5l-2.5,2.6c-1.3,1.4-3.7,1.4-5,0l-2.5-2.6c-1.4-1.5-3.3-2.3-5.4-2.3s-3.9,0.8-5.4,2.3l-2.5,2.6   c-0.7,0.7-1.6,1.1-2.5,1.1h0c-0.9,0-1.8-0.4-2.5-1.1l-2.5-2.6C51.9,72,50,71.2,48,71.2c-2,0-3.9,0.8-5.4,2.3l-2.5,2.6   c-1.3,1.4-3.7,1.4-5,0l-2.5-2.6c-1.4-1.5-3.3-2.3-5.4-2.3s-3.9,0.8-5.4,2.3l-2.5,2.6c-0.7,0.7-1.6,1.1-2.5,1.1h0   c-0.9,0-1.8-0.4-2.5-1.1l-2.5-2.6c-1.4-1.5-3.3-2.3-5.4-2.3c0,0,0,0,0,0c-2,0-3.9,0.8-5.4,2.3l2.9,2.7c0.7-0.7,1.6-1.1,2.5-1.1   c0,0,0,0,0,0c0.9,0,1.8,0.4,2.5,1.1l2.5,2.6c1.4,1.5,3.3,2.3,5.4,2.3c0,0,0,0,0,0c2,0,3.9-0.8,5.4-2.3l2.5-2.6c1.4-1.4,3.7-1.4,5,0   l2.5,2.6c1.4,1.5,3.3,2.3,5.4,2.3c2,0,3.9-0.8,5.4-2.3l2.5-2.6c1.4-1.4,3.7-1.4,5,0l2.5,2.6c1.4,1.5,3.3,2.3,5.4,2.3c0,0,0,0,0,0   c2,0,3.9-0.8,5.4-2.3l2.5-2.6c1.4-1.4,3.7-1.4,5,0l2.5,2.6c1.4,1.5,3.3,2.3,5.4,2.3c2,0,3.9-0.8,5.4-2.3l2.5-2.6   c1.3-1.4,3.7-1.4,5,0l2.9-2.7c-1.4-1.5-3.3-2.3-5.4-2.3C87.5,71.2,85.6,72,84.2,73.5z"/><path fill="none" stroke="#000" d="M84.2,87.8l-2.5,2.6c-1.3,1.4-3.7,1.4-5,0l-2.5-2.6c-1.4-1.5-3.3-2.3-5.4-2.3s-3.9,0.8-5.4,2.3l-2.5,2.6   c-0.7,0.7-1.6,1.1-2.5,1.1c0,0,0,0,0,0c-0.9,0-1.8-0.4-2.5-1.1l-2.5-2.6c-1.4-1.5-3.3-2.3-5.4-2.3c-2,0-3.9,0.8-5.4,2.3l-2.5,2.6   c-1.3,1.4-3.7,1.4-5,0l-2.5-2.6c-1.4-1.5-3.3-2.3-5.4-2.3s-3.9,0.8-5.4,2.3l-2.5,2.6c-0.7,0.7-1.6,1.1-2.5,1.1c0,0,0,0,0,0   c-0.9,0-1.8-0.4-2.5-1.1l-2.5-2.6c-1.4-1.5-3.3-2.3-5.4-2.3c0,0,0,0,0,0c-2,0-3.9,0.8-5.4,2.3l2.9,2.7c0.7-0.7,1.6-1.1,2.5-1.1h0   c0.9,0,1.8,0.4,2.5,1.1l2.5,2.6c1.4,1.5,3.3,2.3,5.4,2.3c0,0,0,0,0,0c2,0,3.9-0.8,5.4-2.3l2.5-2.6c1.4-1.4,3.7-1.4,5,0l2.5,2.6   c1.4,1.5,3.3,2.3,5.4,2.3c2,0,3.9-0.8,5.4-2.3l2.5-2.6c1.4-1.4,3.7-1.4,5,0l2.5,2.6c1.4,1.5,3.3,2.3,5.4,2.3c0,0,0,0,0,0   c2,0,3.9-0.8,5.4-2.3l2.5-2.6c1.4-1.4,3.7-1.4,5,0l2.5,2.6c1.4,1.5,3.3,2.3,5.4,2.3c2,0,3.9-0.8,5.4-2.3l2.5-2.6   c1.3-1.4,3.7-1.4,5,0l2.9-2.7c-1.4-1.5-3.3-2.3-5.4-2.3C87.5,85.5,85.6,86.3,84.2,87.8z"/><path fill="none" stroke="#000" d="M19.3,61.9c-0.7,0.7-1.6,1.1-2.5,1.1c0,0,0,0,0,0c-0.9,0-1.8-0.4-2.5-1.1l-2.5-2.6   c-1.4-1.5-3.3-2.3-5.4-2.3c0,0,0,0,0,0c-2,0-3.9,0.8-5.4,2.3l2.9,2.7c0.7-0.7,1.6-1.1,2.5-1.1h0c0.9,0,1.8,0.4,2.5,1.1l2.5,2.6   c1.4,1.5,3.3,2.3,5.4,2.3c0,0,0,0,0,0c2,0,3.9-0.8,5.4-2.3l2.5-2.6c1.4-1.4,3.7-1.4,5,0l2.5,2.6c1.4,1.5,3.3,2.3,5.4,2.3   c2,0,3.9-0.8,5.4-2.3l2.5-2.6c1.4-1.4,3.7-1.4,5,0l2.5,2.6c1.4,1.5,3.3,2.3,5.4,2.3c0,0,0,0,0,0c2,0,3.9-0.8,5.4-2.3l2.5-2.6   c0,0,0,0,0,0c1-1,2.5-1.3,3.8-0.8c0.1,0.1,0.2,0.1,0.3,0.2c0.1,0,0.1,0.1,0.2,0.1c0.2,0.1,0.4,0.3,0.5,0.4l0.4,0.3l2.3,2.4   c1.4,1.5,3.3,2.3,5.4,2.3c2,0,3.9-0.8,5.4-2.3l2.5-2.6c1.3-1.4,3.7-1.4,5,0l2.9-2.7c-1.4-1.5-3.3-2.3-5.4-2.3c-2,0-3.9,0.8-5.4,2.3   l-2.5,2.6c-1.4,1.4-3.7,1.4-5,0l-1.3-1.4c6.9-6.3,11.1-15.3,11.5-24.6c0.2-5.3-1-9.8-3.3-12c-3.5-3.4-8.5-3-14,1.1   c-3.4,2.5-7.3,4.2-11.1,4.9c-5.3,0.9-8.8,0.1-10.5-0.6c1.4-3.8,2.2-7.4,2.3-10.7C50.6,9,42.9,0.9,33.3,0.5   c-8.5-0.3-13.1,5.2-16.2,8.9c-0.8,1-1.6,1.9-2.1,2.3c-3.2,2.6-7.5,2.2-7.6,2.2l-2.5-0.3l0.4,2.5c2.1,13.7,10.4,17,14.9,17.7   c-0.4,1.4-0.7,2.9-0.9,4.4C18.4,45.1,20.2,52,24,57.6c-0.8,0.4-1.5,0.9-2.2,1.6L19.3,61.9z M74.2,46.7c-6.7,5.7-13.6,7.4-19.4,7.4   c-7.9,0-13.6-3.1-13.7-3.2l-1.7-1l1.9-3.5l1.7,1c0.6,0.3,14.8,7.9,28.6-3.8l1.5-1.3l2.6,3L74.2,46.7z M43.1,38   c0.6,0.3,14.8,7.9,28.6-3.8l1.5-1.3l2.6,3l-1.5,1.3c-6.7,5.7-13.6,7.4-19.4,7.4c-7.9,0-13.6-3.1-13.7-3.2l-1.7-1l1.9-3.5L43.1,38z    M32.3,11.5c4.4,0,8.1,3.6,8.1,8.1s-3.6,8.1-8.1,8.1s-8.1-3.6-8.1-8.1S27.8,11.5,32.3,11.5z"/></g>=</svg>